<svg xmlns="http://www.w3.org/2000/svg" viewBox="0 0 320 133" role="img" aria-labelledby="title">
  <title id="title">Municipalidad de Santo Domingo · PANA</title>
  <g fill="none" stroke-linecap="round" stroke-linejoin="round">
    <path d="M57 91C39 70 29 44 29 13" stroke="#20204f" stroke-width="10"/>
    <path d="M58 96C36 79 18 56 12 36" stroke="#ef1725" stroke-width="10"/>
    <path d="M58 101C35 93 17 81 7 66" stroke="#08a925" stroke-width="10"/>
    <path d="M58 106C40 106 23 101 9 92" stroke="#20204f" stroke-width="10"/>
    <path d="M59 87C47 63 41 35 42 10" stroke="#ff9500" stroke-width="10"/>
    <path d="M20 116C44 130 76 130 110 121s63-8 91 0 49 9 77 2" stroke="#00c8f0" stroke-width="7"/>
  </g>
  <text x="73" y="25" fill="#20204f" font-family="Arial, sans-serif" font-size="15" font-weight="700" letter-spacing="-.6">MUNICIPALIDAD</text>
  <text x="71" y="68" fill="#1b1949" font-family="Arial, sans-serif" font-size="43" font-weight="900" letter-spacing="-2">Santo</text>
  <text x="72" y="101" fill="#1b1949" font-family="Arial, sans-serif" font-size="35" font-weight="900" letter-spacing="-1.5">Domingo</text>
  <text x="245" y="77" fill="#1b1949" font-family="Arial, sans-serif" font-size="24" font-weight="800" letter-spacing="1">PANA</text>
</svg>
